PathFileType	4	(X/Y/Z)	Patient4_TMGait_0pt4_02_right_38.trc.trc
DataRate	CameraRate	NumFrames	NumMarkers	Units	OrigDataRate	OrigDataStartFrame	OrigNumFrames
76.086956521739	76.086956521739	4	33	mm	76.086956521739	1	       141
Frame#	Time	Sacral			L.Shoulder			Chest			R.Shoulder			Neck			R.ASIS			L.ASIS			R.Thigh.Superior			R.Thigh.Lateral			R.Thigh.Inferior			R.Patella			L.Thigh.Superior			L.Thigh.Lateral			L.Thigh.Inferior			L.Patella			L.Shank.Superior			L.Shank.Lateral			L.Shank.Inferior			R.Shank.Superior			R.Shank.Lateral			R.Shank.Inferior			R.Heel			R.Midfoot.Superior			R.Midfoot.Lateral			R.Toe			L.Heel			L.Midfoot.Lateral			L.Midfoot.Superior			L.Toe			L.Elbow			L.Wrist			R.Elbow			R.Wrist			
		X1	Y1	Z1	X2	Y2	Z2	X3	Y3	Z3	X4	Y4	Z4	X5	Y5	Z5	X6	Y6	Z6	X7	Y7	Z7	X8	Y8	Z8	X9	Y9	Z9	X10	Y10	Z10	X11	Y11	Z11	X12	Y12	Z12	X13	Y13	Z13	X14	Y14	Z14	X15	Y15	Z15	X16	Y16	Z16	X17	Y17	Z17	X18	Y18	Z18	X19	Y19	Z19	X20	Y20	Z20	X21	Y21	Z21	X22	Y22	Z22	X23	Y23	Z23	X24	Y24	Z24	X25	Y25	Z25	X26	Y26	Z26	X27	Y27	Z27	X28	Y28	Z28	X29	Y29	Z29	X30	Y30	Z30	X31	Y31	Z31	X32	Y32	Z32	X33	Y33	Z33	

1	50.140000000000	828.828698588378	1003.624784220824	417.363228689760	1008.706023730603	1435.354013899289	225.285335437676	1111.585816607643	1365.984480274832	386.581871703474	1027.738973675768	1439.631244249962	561.321794158738	1006.411547897001	1498.047641365482	379.690902035970	1062.005013440413	948.439861120756	529.577830166435	1039.059675095715	962.407873016653	256.270826240363	1146.493859536156	776.983048067669	503.887888940963	1107.009815870074	657.867717394906	584.177246425846	1198.258393559869	617.144182893180	507.449975943795	1216.403875880978	505.240675657788	533.067124507544	1096.377463768125	753.292648035514	280.116450638533	1009.014604534971	635.152803659843	226.382722457446	1099.049049505327	560.152260062373	284.924178916742	1101.591116080364	489.980030109427	294.799623186197	1071.505251502254	416.568272421606	289.449808787868	976.677365954429	304.645749472169	242.438184797247	1026.303000948777	192.340962244540	312.733183948157	1139.609601637893	431.113026801934	543.832493276708	1017.925039794302	397.230687824123	607.562115132834	1000.690712901169	285.973844098135	564.080973723879	800.519142528139	237.155419518034	540.812510457610	961.650535300676	159.432163345445	581.267897052803	851.309065898988	168.920515033250	612.585939625387	1013.198607201599	39.308744621556	605.411427611665	895.848146470027	39.467934239307	361.977620945235	965.995976035306	35.389065861922	277.887412635568	1051.105081641590	95.831027347016	301.551679635246	1178.211139500397	41.473218845699	267.071916855437	1039.727958597357	1096.716016781908	79.081283902819	1238.670823280497	924.418469063935	88.420159463596	965.491239198489	1092.984197768669	671.705120011873	1025.527886027370	838.047982197613	681.337523852913	
2	50.153142857143	827.824880051290	1004.680843749837	415.741583478950	1010.269873046755	1436.098459062671	224.657152839976	1111.444236407636	1366.449807127932	386.872327683614	1026.092617249542	1440.532496805126	560.518093096415	1007.177639944793	1498.816985662419	378.900895826359	1060.178491108529	949.506077693980	529.494062716123	1039.516775950636	963.207108329624	255.888702133165	1145.561625010868	779.421255187333	503.827612411050	1107.501649165863	660.137395078856	584.490424755564	1198.760037716149	619.993869812134	507.658835822779	1218.676131403772	509.257660225176	533.687854609699	1094.207155477285	752.839823436683	280.323578045714	1005.610986655759	635.486146942143	226.086504534877	1094.703375802264	559.632817026863	284.809939335965	1096.501659164057	489.637188319187	294.676899981927	1066.342666230647	416.577638673370	289.149370847789	971.179510562464	304.843905373323	242.089314773957	1020.805071795244	192.451899069213	312.471238538370	1144.258773115811	433.225078339396	544.651614757728	1024.202504726292	394.650987793022	608.330967133225	1011.409171117781	282.900417673158	565.079524174313	813.654425079627	225.650940871759	541.973382305216	977.774669857011	155.693730341687	582.872227683316	867.544396540600	160.446943471005	614.278448234241	1034.374215097857	37.933821534391	607.102774495423	890.210780590404	39.554393435195	361.863361950298	960.388793782563	35.387974576073	277.791129586143	1045.542071718709	95.836716908705	301.399517772339	1172.613570269381	41.451407722299	267.016173370191	1044.855605390150	1098.908113287998	77.280578225067	1249.251271589664	934.243043287353	88.044632077950	956.339115523416	1096.429976513569	671.839977116090	1008.529578946753	840.296829934762	683.246399426878	
3	50.166285714286	826.821017674370	1005.724405160538	414.152055250112	1011.830366484184	1436.792371676703	224.049946237064	1111.317499333581	1366.881498283152	387.174980848268	1024.493461162735	1441.412440993548	559.737555662026	1007.938566546180	1499.550724275866	378.131984326450	1058.353200769902	950.524758787896	529.454184202509	1039.938870432734	963.954452155812	255.563145750120	1144.570067364946	781.739122059776	503.802918928008	1107.848366517093	662.277859740038	584.809316338147	1199.076068250671	622.662870034734	507.880034476118	1220.695217960177	513.141031986164	534.321294535507	1092.027077976550	752.370456946806	280.578057748788	1002.231016421213	635.803653758505	225.812937125317	1090.367917085528	559.108178634501	284.736828159341	1091.417818267112	489.288785155563	294.594764219273	1061.198632700938	416.578580073959	288.880629904270	965.723721365974	305.025481650144	241.760699578066	1015.343399640892	192.555601241331	312.233734402240	1148.739455266441	435.185986440945	545.493316850714	1030.425140713008	391.823515961193	609.176290906895	1022.161350575764	279.612226047100	566.150730566094	826.941853100179	213.795836756542	543.278256717264	994.032705161326	151.763607299357	584.560578038197	883.949411493231	151.703667904711	616.091380509206	1055.756408908801	36.498503275610	608.912266564245	884.610608919624	39.629717221172	361.754655291030	954.817199942883	35.383686958884	277.698023490951	1040.011084950730	95.842743751748	301.255553112961	1167.050933705184	41.435171160083	266.963096618506	1049.861208261767	1101.009368322724	75.552781733871	1259.582130266525	943.926263760156	87.726682895448	947.298416747129	1099.888217384503	672.013073796770	991.846579996666	842.623240189999	685.150196014259	
4	50.179428571429	825.825179462039	1006.737717481453	412.637823293532	1013.386062440066	1437.384005935197	223.497480326315	1111.224735444815	1367.241344974979	387.511906822508	1022.996325280093	1442.242292748957	559.017554285973	1008.695580178388	1500.209928920406	377.418069816488	1056.535041565900	951.441799821957	529.506320331332	1040.299665267228	964.599921087779	255.351800211524	1143.423364685747	783.772282070448	503.867880775977	1107.834424557139	664.144260820361	585.163446786330	1198.954924129776	624.939451758480	508.145593348725	1222.143738277540	516.734425582194	534.972015500746	1089.831929885005	751.867523213645	280.926308751394	998.899230462352	636.091054490488	225.586832463089	1086.052715247430	558.572583360203	284.745440187577	1086.346533578932	488.930703071860	294.592812954841	1056.091340758692	416.562885941987	288.675836274292	960.350038023159	305.176248561409	241.472009221354	1009.949883125686	192.644223988791	312.043651357911	1152.834730313926	436.876559233704	546.373371345734	1036.546096879743	388.570521814109	610.170856125655	1032.981092932917	276.010920404411	567.335815569443	840.631034827545	201.386683398594	544.834681195457	1010.580220245005	147.606514094183	586.350093608816	900.773815486939	142.584236781850	618.087535725436	1077.540675409773	35.142056204458	610.851644572679	879.078819480059	39.684380072386	361.656419547886	949.311010430291	35.372969230452	277.610851814062	1034.539415586555	95.848160076325	301.128270686280	1161.553306495685	41.429591565013	266.915227465032	1054.616292096774	1102.920751420248	73.987256500722	1269.394820254154	953.273085519459	87.534538000058	938.516438446850	1103.340953771785	672.255249643230	975.832061340324	845.068006643730	687.044205199932	
